0
SECTION
2
HEADER
9
$INSUNITS
70
4
9
$ACADVER
1
AC1014
9
$HANDSEED
5
FFFF
0
ENDSEC
0
SECTION
2
TABLES
0
TABLE
2
VPORT
5
8
100
AcDbSymbolTable
0
ENDTAB
0
TABLE
2
LTYPE
5
5
100
AcDbSymbolTable
0
LTYPE
5
14
100
AcDbSymbolTableRecord
100
AcDbLinetypeTableRecord
2
BYBLOCK
70
0
0
LTYPE
5
15
100
AcDbSymbolTableRecord
100
AcDbLinetypeTableRecord
2
BYLAYER
70
0
0
ENDTAB
0
TABLE
2
LAYER
5
2
100
AcDbSymbolTable
70
2
0
LAYER
5
50
100
AcDbSymbolTableRecord
100
AcDbLayerTableRecord
2
0
70
0
6
CONTINUOUS
0
ENDTAB
0
TABLE
2
STYLE
5
3
100
AcDbSymbolTable
70
1
0
STYLE
5
11
100
AcDbSymbolTableRecord
100
AcDbTextStyleTableRecord
2
STANDARD
70
0
0
ENDTAB
0
TABLE
2
VIEW
5
6
100
AcDbSymbolTable
70
0
0
ENDTAB
0
TABLE
2
UCS
5
7
100
AcDbSymbolTable
70
0
0
ENDTAB
0
TABLE
2
APPID
5
9
100
AcDbSymbolTable
70
2
0
APPID
5
12
100
AcDbSymbolTableRecord
100
AcDbRegAppTableRecord
2
ACAD
70
0
0
ENDTAB
0
TABLE
2
DIMSTYLE
5
A
100
AcDbSymbolTable
70
1
0
ENDTAB
0
TABLE
2
BLOCK_RECORD
5
1
100
AcDbSymbolTable
70
1
0
BLOCK_RECORD
5
1F
100
AcDbSymbolTableRecord
100
AcDbBlockTableRecord
2
*MODEL_SPACE
0
BLOCK_RECORD
5
1B
100
AcDbSymbolTableRecord
100
AcDbBlockTableRecord
2
*PAPER_SPACE
0
ENDTAB
0
ENDSEC
0
SECTION
2
BLOCKS
0
BLOCK
5
20
100
AcDbEntity
100
AcDbBlockBegin
2
*MODEL_SPACE
0
ENDBLK
5
21
100
AcDbEntity
100
AcDbBlockEnd
0
BLOCK
5
1C
100
AcDbEntity
100
AcDbBlockBegin
2
*PAPER_SPACE
0
ENDBLK
5
1D
100
AcDbEntity
100
AcDbBlockEnd
0
ENDSEC
0
SECTION
2
ENTITIES
0
LINE
5
100
100
AcDbEntity
8
0
100
AcDbLine
10
5.7289486788648212e-16
20
7.0710678118654746
30
0
11
-3.53553390593274
21
3.5355339059327391
31
0
0
LINE
5
101
100
AcDbEntity
8
0
100
AcDbLine
10
-3.53553390593274
20
3.5355339059327391
30
0
11
0
21
0
31
0
0
LINE
5
102
100
AcDbEntity
8
0
100
AcDbLine
10
0
20
0
30
0
11
3.5355339059327724
21
3.5355339059327391
31
0
0
LINE
5
103
100
AcDbEntity
8
0
100
AcDbLine
10
3.5355339059327724
20
3.5355339059327391
30
0
11
5.7289486788648212e-16
21
7.0710678118654746
31
0
0
LINE
5
104
100
AcDbEntity
8
0
100
AcDbLine
10
-4.5961940777125445
20
11.667261889578089
30
0
11
-8.131727983645316
21
8.131727983645284
31
0
0
LINE
5
105
100
AcDbEntity
8
0
100
AcDbLine
10
-8.131727983645316
20
8.131727983645284
30
0
11
-4.5961940777125605
21
4.5961940777125605
31
0
0
LINE
5
106
100
AcDbEntity
8
0
100
AcDbLine
10
-4.5961940777125605
20
4.5961940777125605
30
0
11
-1.0606601717797886
21
8.1317279836453
31
0
0
LINE
5
107
100
AcDbEntity
8
0
100
AcDbLine
10
-1.0606601717797886
20
8.1317279836453
30
0
11
-4.5961940777125445
21
11.667261889578089
31
0
0
LINE
5
108
100
AcDbEntity
8
0
100
AcDbLine
10
5.6568542494923797
20
3.5355339059327391
30
0
11
9.192388155425121
21
0
31
0
0
LINE
5
109
100
AcDbEntity
8
0
100
AcDbLine
10
9.192388155425121
20
7.0710678118654746
30
0
11
5.6568542494923797
21
3.5355339059327391
31
0
0
LINE
5
110
100
AcDbEntity
8
0
100
AcDbLine
10
12.727922061357893
20
3.5355339059327391
30
0
11
9.192388155425121
21
7.0710678118654746
31
0
0
LINE
5
111
100
AcDbEntity
8
0
100
AcDbLine
10
9.192388155425121
20
0
30
0
11
12.727922061357893
21
3.5355339059327391
31
0
0
LINE
5
112
100
AcDbEntity
8
0
100
AcDbLine
10
14.849242404917502
20
3.5355339059327391
30
0
11
18.384776310850242
21
0
31
0
0
LINE
5
113
100
AcDbEntity
8
0
100
AcDbLine
10
18.384776310850242
20
7.0710678118654746
30
0
11
14.849242404917502
21
3.5355339059327391
31
0
0
LINE
5
114
100
AcDbEntity
8
0
100
AcDbLine
10
21.920310216783015
20
3.5355339059327391
30
0
11
18.384776310850242
21
7.0710678118654746
31
0
0
LINE
5
115
100
AcDbEntity
8
0
100
AcDbLine
10
18.384776310850242
20
0
30
0
11
21.920310216783015
21
3.5355339059327391
31
0
0
LINE
5
116
100
AcDbEntity
8
0
100
AcDbLine
10
24.041630560342622
20
3.5355339059327391
30
0
11
27.577164466275363
21
0
31
0
0
LINE
5
117
100
AcDbEntity
8
0
100
AcDbLine
10
27.577164466275363
20
7.0710678118654746
30
0
11
24.041630560342622
21
3.5355339059327391
31
0
0
LINE
5
118
100
AcDbEntity
8
0
100
AcDbLine
10
31.112698372208133
20
3.5355339059327391
30
0
11
27.577164466275363
21
7.0710678118654746
31
0
0
LINE
5
119
100
AcDbEntity
8
0
100
AcDbLine
10
27.577164466275363
20
0
30
0
11
31.112698372208133
21
3.5355339059327391
31
0
0
LINE
5
120
100
AcDbEntity
8
0
100
AcDbLine
10
33.234018715767746
20
3.5355339059327391
30
0
11
36.769552621700484
21
0
31
0
0
LINE
5
121
100
AcDbEntity
8
0
100
AcDbLine
10
36.769552621700484
20
7.0710678118654746
30
0
11
33.234018715767746
21
3.5355339059327391
31
0
0
LINE
5
122
100
AcDbEntity
8
0
100
AcDbLine
10
40.30508652763325
20
3.5355339059327391
30
0
11
36.769552621700484
21
7.0710678118654746
31
0
0
LINE
5
123
100
AcDbEntity
8
0
100
AcDbLine
10
36.769552621700484
20
0
30
0
11
40.30508652763325
21
3.5355339059327391
31
0
0
LINE
5
124
100
AcDbEntity
8
0
100
AcDbLine
10
42.426406871192867
20
3.5355339059327391
30
0
11
45.961940777125605
21
0
31
0
0
LINE
5
125
100
AcDbEntity
8
0
100
AcDbLine
10
45.961940777125605
20
7.0710678118654746
30
0
11
42.426406871192867
21
3.5355339059327391
31
0
0
LINE
5
126
100
AcDbEntity
8
0
100
AcDbLine
10
49.497474683058378
20
3.5355339059327391
30
0
11
45.961940777125605
21
7.0710678118654746
31
0
0
LINE
5
127
100
AcDbEntity
8
0
100
AcDbLine
10
45.961940777125605
20
0
30
0
11
49.497474683058378
21
3.5355339059327391
31
0
0
LINE
5
128
100
AcDbEntity
8
0
100
AcDbLine
10
51.618795026617981
20
3.5355339059327391
30
0
11
55.154328932550726
21
0
31
0
0
LINE
5
129
100
AcDbEntity
8
0
100
AcDbLine
10
55.154328932550726
20
7.0710678118654746
30
0
11
51.618795026617981
21
3.5355339059327391
31
0
0
LINE
5
130
100
AcDbEntity
8
0
100
AcDbLine
10
58.689862838483499
20
3.5355339059327391
30
0
11
55.154328932550726
21
7.0710678118654746
31
0
0
LINE
5
131
100
AcDbEntity
8
0
100
AcDbLine
10
55.154328932550726
20
0
30
0
11
58.689862838483499
21
3.5355339059327391
31
0
0
LINE
5
132
100
AcDbEntity
8
0
100
AcDbLine
10
60.811183182043109
20
3.5355339059327391
30
0
11
64.346717087975847
21
0
31
0
0
LINE
5
133
100
AcDbEntity
8
0
100
AcDbLine
10
64.346717087975847
20
7.0710678118654746
30
0
11
60.811183182043109
21
3.5355339059327391
31
0
0
LINE
5
134
100
AcDbEntity
8
0
100
AcDbLine
10
67.882250993908627
20
3.5355339059327391
30
0
11
64.346717087975847
21
7.0710678118654746
31
0
0
LINE
5
135
100
AcDbEntity
8
0
100
AcDbLine
10
64.346717087975847
20
0
30
0
11
67.882250993908627
21
3.5355339059327391
31
0
0
LINE
5
136
100
AcDbEntity
8
0
100
AcDbLine
10
70.00357133746823
20
3.5355339059327391
30
0
11
73.539105243400968
21
0
31
0
0
LINE
5
137
100
AcDbEntity
8
0
100
AcDbLine
10
73.539105243400968
20
7.0710678118654746
30
0
11
70.00357133746823
21
3.5355339059327391
31
0
0
LINE
5
138
100
AcDbEntity
8
0
100
AcDbLine
10
77.074639149333734
20
3.5355339059327391
30
0
11
73.539105243400968
21
7.0710678118654746
31
0
0
LINE
5
139
100
AcDbEntity
8
0
100
AcDbLine
10
73.539105243400968
20
0
30
0
11
77.074639149333734
21
3.5355339059327391
31
0
0
LINE
5
140
100
AcDbEntity
8
0
100
AcDbLine
10
-3.53553390593274
20
12.727922061357859
30
0
11
0
21
9.192388155425121
31
0
0
LINE
5
141
100
AcDbEntity
8
0
100
AcDbLine
10
5.7289486788648212e-16
20
16.263455967290597
30
0
11
-3.53553390593274
21
12.727922061357859
31
0
0
LINE
5
142
100
AcDbEntity
8
0
100
AcDbLine
10
3.5355339059327724
20
12.727922061357859
30
0
11
5.7289486788648212e-16
21
16.263455967290597
31
0
0
LINE
5
143
100
AcDbEntity
8
0
100
AcDbLine
10
0
20
9.192388155425121
30
0
11
3.5355339059327724
21
12.727922061357859
31
0
0
LINE
5
144
100
AcDbEntity
8
0
100
AcDbLine
10
5.6568542494923797
20
12.727922061357859
30
0
11
9.192388155425121
21
9.192388155425121
31
0
0
LINE
5
145
100
AcDbEntity
8
0
100
AcDbLine
10
9.192388155425121
20
16.263455967290597
30
0
11
5.6568542494923797
21
12.727922061357859
31
0
0
LINE
5
146
100
AcDbEntity
8
0
100
AcDbLine
10
12.727922061357893
20
12.727922061357859
30
0
11
9.192388155425121
21
16.263455967290597
31
0
0
LINE
5
147
100
AcDbEntity
8
0
100
AcDbLine
10
9.192388155425121
20
9.192388155425121
30
0
11
12.727922061357893
21
12.727922061357859
31
0
0
LINE
5
148
100
AcDbEntity
8
0
100
AcDbLine
10
14.849242404917502
20
12.727922061357859
30
0
11
18.384776310850242
21
9.192388155425121
31
0
0
LINE
5
149
100
AcDbEntity
8
0
100
AcDbLine
10
18.384776310850242
20
16.263455967290597
30
0
11
14.849242404917502
21
12.727922061357859
31
0
0
LINE
5
150
100
AcDbEntity
8
0
100
AcDbLine
10
21.920310216783015
20
12.727922061357859
30
0
11
18.384776310850242
21
16.263455967290597
31
0
0
LINE
5
151
100
AcDbEntity
8
0
100
AcDbLine
10
18.384776310850242
20
9.192388155425121
30
0
11
21.920310216783015
21
12.727922061357859
31
0
0
LINE
5
152
100
AcDbEntity
8
0
100
AcDbLine
10
24.041630560342622
20
12.727922061357859
30
0
11
27.577164466275363
21
9.192388155425121
31
0
0
LINE
5
153
100
AcDbEntity
8
0
100
AcDbLine
10
27.577164466275363
20
16.263455967290597
30
0
11
24.041630560342622
21
12.727922061357859
31
0
0
LINE
5
154
100
AcDbEntity
8
0
100
AcDbLine
10
31.112698372208133
20
12.727922061357859
30
0
11
27.577164466275363
21
16.263455967290597
31
0
0
LINE
5
155
100
AcDbEntity
8
0
100
AcDbLine
10
27.577164466275363
20
9.192388155425121
30
0
11
31.112698372208133
21
12.727922061357859
31
0
0
LINE
5
156
100
AcDbEntity
8
0
100
AcDbLine
10
33.234018715767746
20
12.727922061357859
30
0
11
36.769552621700484
21
9.192388155425121
31
0
0
LINE
5
157
100
AcDbEntity
8
0
100
AcDbLine
10
36.769552621700484
20
16.263455967290597
30
0
11
33.234018715767746
21
12.727922061357859
31
0
0
LINE
5
158
100
AcDbEntity
8
0
100
AcDbLine
10
40.30508652763325
20
12.727922061357859
30
0
11
36.769552621700484
21
16.263455967290597
31
0
0
LINE
5
159
100
AcDbEntity
8
0
100
AcDbLine
10
36.769552621700484
20
9.192388155425121
30
0
11
40.30508652763325
21
12.727922061357859
31
0
0
LINE
5
160
100
AcDbEntity
8
0
100
AcDbLine
10
42.426406871192867
20
12.727922061357859
30
0
11
45.961940777125605
21
9.192388155425121
31
0
0
LINE
5
161
100
AcDbEntity
8
0
100
AcDbLine
10
45.961940777125605
20
16.263455967290597
30
0
11
42.426406871192867
21
12.727922061357859
31
0
0
LINE
5
162
100
AcDbEntity
8
0
100
AcDbLine
10
49.497474683058378
20
12.727922061357859
30
0
11
45.961940777125605
21
16.263455967290597
31
0
0
LINE
5
163
100
AcDbEntity
8
0
100
AcDbLine
10
45.961940777125605
20
9.192388155425121
30
0
11
49.497474683058378
21
12.727922061357859
31
0
0
LINE
5
164
100
AcDbEntity
8
0
100
AcDbLine
10
51.618795026617981
20
12.727922061357859
30
0
11
55.154328932550726
21
9.192388155425121
31
0
0
LINE
5
165
100
AcDbEntity
8
0
100
AcDbLine
10
55.154328932550726
20
16.263455967290597
30
0
11
51.618795026617981
21
12.727922061357859
31
0
0
LINE
5
166
100
AcDbEntity
8
0
100
AcDbLine
10
58.689862838483499
20
12.727922061357859
30
0
11
55.154328932550726
21
16.263455967290597
31
0
0
LINE
5
167
100
AcDbEntity
8
0
100
AcDbLine
10
55.154328932550726
20
9.192388155425121
30
0
11
58.689862838483499
21
12.727922061357859
31
0
0
LINE
5
168
100
AcDbEntity
8
0
100
AcDbLine
10
60.811183182043109
20
12.727922061357859
30
0
11
64.346717087975847
21
9.192388155425121
31
0
0
LINE
5
169
100
AcDbEntity
8
0
100
AcDbLine
10
64.346717087975847
20
16.263455967290597
30
0
11
60.811183182043109
21
12.727922061357859
31
0
0
LINE
5
170
100
AcDbEntity
8
0
100
AcDbLine
10
67.882250993908627
20
12.727922061357859
30
0
11
64.346717087975847
21
16.263455967290597
31
0
0
LINE
5
171
100
AcDbEntity
8
0
100
AcDbLine
10
64.346717087975847
20
9.192388155425121
30
0
11
67.882250993908627
21
12.727922061357859
31
0
0
LINE
5
172
100
AcDbEntity
8
0
100
AcDbLine
10
70.00357133746823
20
12.727922061357859
30
0
11
73.539105243400968
21
9.192388155425121
31
0
0
LINE
5
173
100
AcDbEntity
8
0
100
AcDbLine
10
73.539105243400968
20
16.263455967290597
30
0
11
70.00357133746823
21
12.727922061357859
31
0
0
LINE
5
174
100
AcDbEntity
8
0
100
AcDbLine
10
77.074639149333734
20
12.727922061357859
30
0
11
73.539105243400968
21
16.263455967290597
31
0
0
LINE
5
175
100
AcDbEntity
8
0
100
AcDbLine
10
73.539105243400968
20
9.192388155425121
30
0
11
77.074639149333734
21
12.727922061357859
31
0
0
LINE
5
176
100
AcDbEntity
8
0
100
AcDbLine
10
-3.53553390593274
20
21.92031021678298
30
0
11
0
21
18.384776310850242
31
0
0
LINE
5
177
100
AcDbEntity
8
0
100
AcDbLine
10
5.7289486788648212e-16
20
25.455844122715714
30
0
11
-3.53553390593274
21
21.92031021678298
31
0
0
LINE
5
178
100
AcDbEntity
8
0
100
AcDbLine
10
3.5355339059327724
20
21.92031021678298
30
0
11
5.7289486788648212e-16
21
25.455844122715714
31
0
0
LINE
5
179
100
AcDbEntity
8
0
100
AcDbLine
10
0
20
18.384776310850242
30
0
11
3.5355339059327724
21
21.92031021678298
31
0
0
LINE
5
180
100
AcDbEntity
8
0
100
AcDbLine
10
5.6568542494923797
20
21.92031021678298
30
0
11
9.192388155425121
21
18.384776310850242
31
0
0
LINE
5
181
100
AcDbEntity
8
0
100
AcDbLine
10
9.192388155425121
20
25.455844122715714
30
0
11
5.6568542494923797
21
21.92031021678298
31
0
0
LINE
5
182
100
AcDbEntity
8
0
100
AcDbLine
10
12.727922061357893
20
21.92031021678298
30
0
11
9.192388155425121
21
25.455844122715714
31
0
0
LINE
5
183
100
AcDbEntity
8
0
100
AcDbLine
10
9.192388155425121
20
18.384776310850242
30
0
11
12.727922061357893
21
21.92031021678298
31
0
0
LINE
5
184
100
AcDbEntity
8
0
100
AcDbLine
10
14.849242404917502
20
21.92031021678298
30
0
11
18.384776310850242
21
18.384776310850242
31
0
0
LINE
5
185
100
AcDbEntity
8
0
100
AcDbLine
10
18.384776310850242
20
25.455844122715714
30
0
11
14.849242404917502
21
21.92031021678298
31
0
0
LINE
5
186
100
AcDbEntity
8
0
100
AcDbLine
10
21.920310216783015
20
21.92031021678298
30
0
11
18.384776310850242
21
25.455844122715714
31
0
0
LINE
5
187
100
AcDbEntity
8
0
100
AcDbLine
10
18.384776310850242
20
18.384776310850242
30
0
11
21.920310216783015
21
21.92031021678298
31
0
0
LINE
5
188
100
AcDbEntity
8
0
100
AcDbLine
10
24.041630560342622
20
21.92031021678298
30
0
11
27.577164466275363
21
18.384776310850242
31
0
0
LINE
5
189
100
AcDbEntity
8
0
100
AcDbLine
10
27.577164466275363
20
25.455844122715714
30
0
11
24.041630560342622
21
21.92031021678298
31
0
0
LINE
5
190
100
AcDbEntity
8
0
100
AcDbLine
10
31.112698372208133
20
21.92031021678298
30
0
11
27.577164466275363
21
25.455844122715714
31
0
0
LINE
5
191
100
AcDbEntity
8
0
100
AcDbLine
10
27.577164466275363
20
18.384776310850242
30
0
11
31.112698372208133
21
21.92031021678298
31
0
0
LINE
5
192
100
AcDbEntity
8
0
100
AcDbLine
10
33.234018715767746
20
21.92031021678298
30
0
11
36.769552621700484
21
18.384776310850242
31
0
0
LINE
5
193
100
AcDbEntity
8
0
100
AcDbLine
10
36.769552621700484
20
25.455844122715714
30
0
11
33.234018715767746
21
21.92031021678298
31
0
0
LINE
5
194
100
AcDbEntity
8
0
100
AcDbLine
10
40.30508652763325
20
21.92031021678298
30
0
11
36.769552621700484
21
25.455844122715714
31
0
0
LINE
5
195
100
AcDbEntity
8
0
100
AcDbLine
10
36.769552621700484
20
18.384776310850242
30
0
11
40.30508652763325
21
21.92031021678298
31
0
0
LINE
5
196
100
AcDbEntity
8
0
100
AcDbLine
10
42.426406871192867
20
21.92031021678298
30
0
11
45.961940777125605
21
18.384776310850242
31
0
0
LINE
5
197
100
AcDbEntity
8
0
100
AcDbLine
10
45.961940777125605
20
25.455844122715714
30
0
11
42.426406871192867
21
21.92031021678298
31
0
0
LINE
5
198
100
AcDbEntity
8
0
100
AcDbLine
10
49.497474683058378
20
21.92031021678298
30
0
11
45.961940777125605
21
25.455844122715714
31
0
0
LINE
5
199
100
AcDbEntity
8
0
100
AcDbLine
10
45.961940777125605
20
18.384776310850242
30
0
11
49.497474683058378
21
21.92031021678298
31
0
0
LINE
5
200
100
AcDbEntity
8
0
100
AcDbLine
10
51.618795026617981
20
21.92031021678298
30
0
11
55.154328932550726
21
18.384776310850242
31
0
0
LINE
5
201
100
AcDbEntity
8
0
100
AcDbLine
10
55.154328932550726
20
25.455844122715714
30
0
11
51.618795026617981
21
21.92031021678298
31
0
0
LINE
5
202
100
AcDbEntity
8
0
100
AcDbLine
10
58.689862838483499
20
21.92031021678298
30
0
11
55.154328932550726
21
25.455844122715714
31
0
0
LINE
5
203
100
AcDbEntity
8
0
100
AcDbLine
10
55.154328932550726
20
18.384776310850242
30
0
11
58.689862838483499
21
21.92031021678298
31
0
0
LINE
5
204
100
AcDbEntity
8
0
100
AcDbLine
10
60.811183182043109
20
21.92031021678298
30
0
11
64.346717087975847
21
18.384776310850242
31
0
0
LINE
5
205
100
AcDbEntity
8
0
100
AcDbLine
10
64.346717087975847
20
25.455844122715714
30
0
11
60.811183182043109
21
21.92031021678298
31
0
0
LINE
5
206
100
AcDbEntity
8
0
100
AcDbLine
10
67.882250993908627
20
21.92031021678298
30
0
11
64.346717087975847
21
25.455844122715714
31
0
0
LINE
5
207
100
AcDbEntity
8
0
100
AcDbLine
10
64.346717087975847
20
18.384776310850242
30
0
11
67.882250993908627
21
21.92031021678298
31
0
0
LINE
5
208
100
AcDbEntity
8
0
100
AcDbLine
10
70.00357133746823
20
21.92031021678298
30
0
11
73.539105243400968
21
18.384776310850242
31
0
0
LINE
5
209
100
AcDbEntity
8
0
100
AcDbLine
10
73.539105243400968
20
25.455844122715714
30
0
11
70.00357133746823
21
21.92031021678298
31
0
0
LINE
5
210
100
AcDbEntity
8
0
100
AcDbLine
10
77.074639149333734
20
21.92031021678298
30
0
11
73.539105243400968
21
25.455844122715714
31
0
0
LINE
5
211
100
AcDbEntity
8
0
100
AcDbLine
10
73.539105243400968
20
18.384776310850242
30
0
11
77.074639149333734
21
21.92031021678298
31
0
0
LINE
5
212
100
AcDbEntity
8
0
100
AcDbLine
10
-3.53553390593274
20
31.112698372208101
30
0
11
0
21
27.577164466275363
31
0
0
LINE
5
213
100
AcDbEntity
8
0
100
AcDbLine
10
5.7289486788648212e-16
20
34.648232278140839
30
0
11
-3.53553390593274
21
31.112698372208101
31
0
0
LINE
5
214
100
AcDbEntity
8
0
100
AcDbLine
10
3.5355339059327724
20
31.112698372208101
30
0
11
5.7289486788648212e-16
21
34.648232278140839
31
0
0
LINE
5
215
100
AcDbEntity
8
0
100
AcDbLine
10
0
20
27.577164466275363
30
0
11
3.5355339059327724
21
31.112698372208101
31
0
0
LINE
5
216
100
AcDbEntity
8
0
100
AcDbLine
10
5.6568542494923797
20
31.112698372208101
30
0
11
9.192388155425121
21
27.577164466275363
31
0
0
LINE
5
217
100
AcDbEntity
8
0
100
AcDbLine
10
9.192388155425121
20
34.648232278140839
30
0
11
5.6568542494923797
21
31.112698372208101
31
0
0
LINE
5
218
100
AcDbEntity
8
0
100
AcDbLine
10
12.727922061357893
20
31.112698372208101
30
0
11
9.192388155425121
21
34.648232278140839
31
0
0
LINE
5
219
100
AcDbEntity
8
0
100
AcDbLine
10
9.192388155425121
20
27.577164466275363
30
0
11
12.727922061357893
21
31.112698372208101
31
0
0
LINE
5
220
100
AcDbEntity
8
0
100
AcDbLine
10
14.849242404917502
20
31.112698372208101
30
0
11
18.384776310850242
21
27.577164466275363
31
0
0
LINE
5
221
100
AcDbEntity
8
0
100
AcDbLine
10
18.384776310850242
20
34.648232278140839
30
0
11
14.849242404917502
21
31.112698372208101
31
0
0
LINE
5
222
100
AcDbEntity
8
0
100
AcDbLine
10
21.920310216783015
20
31.112698372208101
30
0
11
18.384776310850242
21
34.648232278140839
31
0
0
LINE
5
223
100
AcDbEntity
8
0
100
AcDbLine
10
18.384776310850242
20
27.577164466275363
30
0
11
21.920310216783015
21
31.112698372208101
31
0
0
LINE
5
224
100
AcDbEntity
8
0
100
AcDbLine
10
24.041630560342622
20
31.112698372208101
30
0
11
27.577164466275363
21
27.577164466275363
31
0
0
LINE
5
225
100
AcDbEntity
8
0
100
AcDbLine
10
27.577164466275363
20
34.648232278140839
30
0
11
24.041630560342622
21
31.112698372208101
31
0
0
LINE
5
226
100
AcDbEntity
8
0
100
AcDbLine
10
31.112698372208133
20
31.112698372208101
30
0
11
27.577164466275363
21
34.648232278140839
31
0
0
LINE
5
227
100
AcDbEntity
8
0
100
AcDbLine
10
27.577164466275363
20
27.577164466275363
30
0
11
31.112698372208133
21
31.112698372208101
31
0
0
LINE
5
228
100
AcDbEntity
8
0
100
AcDbLine
10
33.234018715767746
20
31.112698372208101
30
0
11
36.769552621700484
21
27.577164466275363
31
0
0
LINE
5
229
100
AcDbEntity
8
0
100
AcDbLine
10
36.769552621700484
20
34.648232278140839
30
0
11
33.234018715767746
21
31.112698372208101
31
0
0
LINE
5
230
100
AcDbEntity
8
0
100
AcDbLine
10
40.30508652763325
20
31.112698372208101
30
0
11
36.769552621700484
21
34.648232278140839
31
0
0
LINE
5
231
100
AcDbEntity
8
0
100
AcDbLine
10
36.769552621700484
20
27.577164466275363
30
0
11
40.30508652763325
21
31.112698372208101
31
0
0
LINE
5
232
100
AcDbEntity
8
0
100
AcDbLine
10
42.426406871192867
20
31.112698372208101
30
0
11
45.961940777125605
21
27.577164466275363
31
0
0
LINE
5
233
100
AcDbEntity
8
0
100
AcDbLine
10
45.961940777125605
20
34.648232278140839
30
0
11
42.426406871192867
21
31.112698372208101
31
0
0
LINE
5
234
100
AcDbEntity
8
0
100
AcDbLine
10
49.497474683058378
20
31.112698372208101
30
0
11
45.961940777125605
21
34.648232278140839
31
0
0
LINE
5
235
100
AcDbEntity
8
0
100
AcDbLine
10
45.961940777125605
20
27.577164466275363
30
0
11
49.497474683058378
21
31.112698372208101
31
0
0
LINE
5
236
100
AcDbEntity
8
0
100
AcDbLine
10
51.618795026617981
20
31.112698372208101
30
0
11
55.154328932550726
21
27.577164466275363
31
0
0
LINE
5
237
100
AcDbEntity
8
0
100
AcDbLine
10
55.154328932550726
20
34.648232278140839
30
0
11
51.618795026617981
21
31.112698372208101
31
0
0
LINE
5
238
100
AcDbEntity
8
0
100
AcDbLine
10
58.689862838483499
20
31.112698372208101
30
0
11
55.154328932550726
21
34.648232278140839
31
0
0
LINE
5
239
100
AcDbEntity
8
0
100
AcDbLine
10
55.154328932550726
20
27.577164466275363
30
0
11
58.689862838483499
21
31.112698372208101
31
0
0
LINE
5
240
100
AcDbEntity
8
0
100
AcDbLine
10
60.811183182043109
20
31.112698372208101
30
0
11
64.346717087975847
21
27.577164466275363
31
0
0
LINE
5
241
100
AcDbEntity
8
0
100
AcDbLine
10
64.346717087975847
20
34.648232278140839
30
0
11
60.811183182043109
21
31.112698372208101
31
0
0
LINE
5
242
100
AcDbEntity
8
0
100
AcDbLine
10
67.882250993908627
20
31.112698372208101
30
0
11
64.346717087975847
21
34.648232278140839
31
0
0
LINE
5
243
100
AcDbEntity
8
0
100
AcDbLine
10
64.346717087975847
20
27.577164466275363
30
0
11
67.882250993908627
21
31.112698372208101
31
0
0
LINE
5
244
100
AcDbEntity
8
0
100
AcDbLine
10
70.00357133746823
20
31.112698372208101
30
0
11
73.539105243400968
21
27.577164466275363
31
0
0
LINE
5
245
100
AcDbEntity
8
0
100
AcDbLine
10
73.539105243400968
20
34.648232278140839
30
0
11
70.00357133746823
21
31.112698372208101
31
0
0
LINE
5
246
100
AcDbEntity
8
0
100
AcDbLine
10
77.074639149333734
20
31.112698372208101
30
0
11
73.539105243400968
21
34.648232278140839
31
0
0
LINE
5
247
100
AcDbEntity
8
0
100
AcDbLine
10
73.539105243400968
20
27.577164466275363
30
0
11
77.074639149333734
21
31.112698372208101
31
0
0
LINE
5
248
100
AcDbEntity
8
0
100
AcDbLine
10
-3.53553390593274
20
40.305086527633222
30
0
11
0
21
36.769552621700484
31
0
0
LINE
5
249
100
AcDbEntity
8
0
100
AcDbLine
10
5.7289486788648212e-16
20
43.84062043356596
30
0
11
-3.53553390593274
21
40.305086527633222
31
0
0
LINE
5
250
100
AcDbEntity
8
0
100
AcDbLine
10
3.5355339059327724
20
40.305086527633222
30
0
11
5.7289486788648212e-16
21
43.84062043356596
31
0
0
LINE
5
251
100
AcDbEntity
8
0
100
AcDbLine
10
0
20
36.769552621700484
30
0
11
3.5355339059327724
21
40.305086527633222
31
0
0
LINE
5
252
100
AcDbEntity
8
0
100
AcDbLine
10
5.6568542494923797
20
40.305086527633222
30
0
11
9.192388155425121
21
36.769552621700484
31
0
0
LINE
5
253
100
AcDbEntity
8
0
100
AcDbLine
10
9.192388155425121
20
43.84062043356596
30
0
11
5.6568542494923797
21
40.305086527633222
31
0
0
LINE
5
254
100
AcDbEntity
8
0
100
AcDbLine
10
12.727922061357893
20
40.305086527633222
30
0
11
9.192388155425121
21
43.84062043356596
31
0
0
LINE
5
255
100
AcDbEntity
8
0
100
AcDbLine
10
9.192388155425121
20
36.769552621700484
30
0
11
12.727922061357893
21
40.305086527633222
31
0
0
LINE
5
256
100
AcDbEntity
8
0
100
AcDbLine
10
14.849242404917502
20
40.305086527633222
30
0
11
18.384776310850242
21
36.769552621700484
31
0
0
LINE
5
257
100
AcDbEntity
8
0
100
AcDbLine
10
18.384776310850242
20
43.84062043356596
30
0
11
14.849242404917502
21
40.305086527633222
31
0
0
LINE
5
258
100
AcDbEntity
8
0
100
AcDbLine
10
21.920310216783015
20
40.305086527633222
30
0
11
18.384776310850242
21
43.84062043356596
31
0
0
LINE
5
259
100
AcDbEntity
8
0
100
AcDbLine
10
18.384776310850242
20
36.769552621700484
30
0
11
21.920310216783015
21
40.305086527633222
31
0
0
LINE
5
260
100
AcDbEntity
8
0
100
AcDbLine
10
24.041630560342622
20
40.305086527633222
30
0
11
27.577164466275363
21
36.769552621700484
31
0
0
LINE
5
261
100
AcDbEntity
8
0
100
AcDbLine
10
27.577164466275363
20
43.84062043356596
30
0
11
24.041630560342622
21
40.305086527633222
31
0
0
LINE
5
262
100
AcDbEntity
8
0
100
AcDbLine
10
31.112698372208133
20
40.305086527633222
30
0
11
27.577164466275363
21
43.84062043356596
31
0
0
LINE
5
263
100
AcDbEntity
8
0
100
AcDbLine
10
27.577164466275363
20
36.769552621700484
30
0
11
31.112698372208133
21
40.305086527633222
31
0
0
LINE
5
264
100
AcDbEntity
8
0
100
AcDbLine
10
33.234018715767746
20
40.305086527633222
30
0
11
36.769552621700484
21
36.769552621700484
31
0
0
LINE
5
265
100
AcDbEntity
8
0
100
AcDbLine
10
36.769552621700484
20
43.84062043356596
30
0
11
33.234018715767746
21
40.305086527633222
31
0
0
LINE
5
266
100
AcDbEntity
8
0
100
AcDbLine
10
40.30508652763325
20
40.305086527633222
30
0
11
36.769552621700484
21
43.84062043356596
31
0
0
LINE
5
267
100
AcDbEntity
8
0
100
AcDbLine
10
36.769552621700484
20
36.769552621700484
30
0
11
40.30508652763325
21
40.305086527633222
31
0
0
LINE
5
268
100
AcDbEntity
8
0
100
AcDbLine
10
42.426406871192867
20
40.305086527633222
30
0
11
45.961940777125605
21
36.769552621700484
31
0
0
LINE
5
269
100
AcDbEntity
8
0
100
AcDbLine
10
45.961940777125605
20
43.84062043356596
30
0
11
42.426406871192867
21
40.305086527633222
31
0
0
LINE
5
270
100
AcDbEntity
8
0
100
AcDbLine
10
49.497474683058378
20
40.305086527633222
30
0
11
45.961940777125605
21
43.84062043356596
31
0
0
LINE
5
271
100
AcDbEntity
8
0
100
AcDbLine
10
45.961940777125605
20
36.769552621700484
30
0
11
49.497474683058378
21
40.305086527633222
31
0
0
LINE
5
272
100
AcDbEntity
8
0
100
AcDbLine
10
51.618795026617981
20
40.305086527633222
30
0
11
55.154328932550726
21
36.769552621700484
31
0
0
LINE
5
273
100
AcDbEntity
8
0
100
AcDbLine
10
55.154328932550726
20
43.84062043356596
30
0
11
51.618795026617981
21
40.305086527633222
31
0
0
LINE
5
274
100
AcDbEntity
8
0
100
AcDbLine
10
58.689862838483499
20
40.305086527633222
30
0
11
55.154328932550726
21
43.84062043356596
31
0
0
LINE
5
275
100
AcDbEntity
8
0
100
AcDbLine
10
55.154328932550726
20
36.769552621700484
30
0
11
58.689862838483499
21
40.305086527633222
31
0
0
LINE
5
276
100
AcDbEntity
8
0
100
AcDbLine
10
60.811183182043109
20
40.305086527633222
30
0
11
64.346717087975847
21
36.769552621700484
31
0
0
LINE
5
277
100
AcDbEntity
8
0
100
AcDbLine
10
64.346717087975847
20
43.84062043356596
30
0
11
60.811183182043109
21
40.305086527633222
31
0
0
LINE
5
278
100
AcDbEntity
8
0
100
AcDbLine
10
67.882250993908627
20
40.305086527633222
30
0
11
64.346717087975847
21
43.84062043356596
31
0
0
LINE
5
279
100
AcDbEntity
8
0
100
AcDbLine
10
64.346717087975847
20
36.769552621700484
30
0
11
67.882250993908627
21
40.305086527633222
31
0
0
LINE
5
280
100
AcDbEntity
8
0
100
AcDbLine
10
70.00357133746823
20
40.305086527633222
30
0
11
73.539105243400968
21
36.769552621700484
31
0
0
LINE
5
281
100
AcDbEntity
8
0
100
AcDbLine
10
73.539105243400968
20
43.84062043356596
30
0
11
70.00357133746823
21
40.305086527633222
31
0
0
LINE
5
282
100
AcDbEntity
8
0
100
AcDbLine
10
77.074639149333734
20
40.305086527633222
30
0
11
73.539105243400968
21
43.84062043356596
31
0
0
LINE
5
283
100
AcDbEntity
8
0
100
AcDbLine
10
73.539105243400968
20
36.769552621700484
30
0
11
77.074639149333734
21
40.305086527633222
31
0
0
LINE
5
284
100
AcDbEntity
8
0
100
AcDbLine
10
-3.53553390593274
20
49.497474683058343
30
0
11
0
21
45.961940777125605
31
0
0
LINE
5
285
100
AcDbEntity
8
0
100
AcDbLine
10
5.7289486788648212e-16
20
53.033008588991081
30
0
11
-3.53553390593274
21
49.497474683058343
31
0
0
LINE
5
286
100
AcDbEntity
8
0
100
AcDbLine
10
3.5355339059327724
20
49.497474683058343
30
0
11
5.7289486788648212e-16
21
53.033008588991081
31
0
0
LINE
5
287
100
AcDbEntity
8
0
100
AcDbLine
10
0
20
45.961940777125605
30
0
11
3.5355339059327724
21
49.497474683058343
31
0
0
LINE
5
288
100
AcDbEntity
8
0
100
AcDbLine
10
5.6568542494923797
20
49.497474683058343
30
0
11
9.192388155425121
21
45.961940777125605
31
0
0
LINE
5
289
100
AcDbEntity
8
0
100
AcDbLine
10
9.192388155425121
20
53.033008588991081
30
0
11
5.6568542494923797
21
49.497474683058343
31
0
0
LINE
5
290
100
AcDbEntity
8
0
100
AcDbLine
10
12.727922061357893
20
49.497474683058343
30
0
11
9.192388155425121
21
53.033008588991081
31
0
0
LINE
5
291
100
AcDbEntity
8
0
100
AcDbLine
10
9.192388155425121
20
45.961940777125605
30
0
11
12.727922061357893
21
49.497474683058343
31
0
0
LINE
5
292
100
AcDbEntity
8
0
100
AcDbLine
10
14.849242404917502
20
49.497474683058343
30
0
11
18.384776310850242
21
45.961940777125605
31
0
0
LINE
5
293
100
AcDbEntity
8
0
100
AcDbLine
10
18.384776310850242
20
53.033008588991081
30
0
11
14.849242404917502
21
49.497474683058343
31
0
0
LINE
5
294
100
AcDbEntity
8
0
100
AcDbLine
10
21.920310216783015
20
49.497474683058343
30
0
11
18.384776310850242
21
53.033008588991081
31
0
0
LINE
5
295
100
AcDbEntity
8
0
100
AcDbLine
10
18.384776310850242
20
45.961940777125605
30
0
11
21.920310216783015
21
49.497474683058343
31
0
0
LINE
5
296
100
AcDbEntity
8
0
100
AcDbLine
10
24.041630560342622
20
49.497474683058343
30
0
11
27.577164466275363
21
45.961940777125605
31
0
0
LINE
5
297
100
AcDbEntity
8
0
100
AcDbLine
10
27.577164466275363
20
53.033008588991081
30
0
11
24.041630560342622
21
49.497474683058343
31
0
0
LINE
5
298
100
AcDbEntity
8
0
100
AcDbLine
10
31.112698372208133
20
49.497474683058343
30
0
11
27.577164466275363
21
53.033008588991081
31
0
0
LINE
5
299
100
AcDbEntity
8
0
100
AcDbLine
10
27.577164466275363
20
45.961940777125605
30
0
11
31.112698372208133
21
49.497474683058343
31
0
0
LINE
5
300
100
AcDbEntity
8
0
100
AcDbLine
10
33.234018715767746
20
49.497474683058343
30
0
11
36.769552621700484
21
45.961940777125605
31
0
0
LINE
5
301
100
AcDbEntity
8
0
100
AcDbLine
10
36.769552621700484
20
53.033008588991081
30
0
11
33.234018715767746
21
49.497474683058343
31
0
0
LINE
5
302
100
AcDbEntity
8
0
100
AcDbLine
10
40.30508652763325
20
49.497474683058343
30
0
11
36.769552621700484
21
53.033008588991081
31
0
0
LINE
5
303
100
AcDbEntity
8
0
100
AcDbLine
10
36.769552621700484
20
45.961940777125605
30
0
11
40.30508652763325
21
49.497474683058343
31
0
0
LINE
5
304
100
AcDbEntity
8
0
100
AcDbLine
10
42.426406871192867
20
49.497474683058343
30
0
11
45.961940777125605
21
45.961940777125605
31
0
0
LINE
5
305
100
AcDbEntity
8
0
100
AcDbLine
10
45.961940777125605
20
53.033008588991081
30
0
11
42.426406871192867
21
49.497474683058343
31
0
0
LINE
5
306
100
AcDbEntity
8
0
100
AcDbLine
10
49.497474683058378
20
49.497474683058343
30
0
11
45.961940777125605
21
53.033008588991081
31
0
0
LINE
5
307
100
AcDbEntity
8
0
100
AcDbLine
10
45.961940777125605
20
45.961940777125605
30
0
11
49.497474683058378
21
49.497474683058343
31
0
0
LINE
5
308
100
AcDbEntity
8
0
100
AcDbLine
10
51.618795026617981
20
49.497474683058343
30
0
11
55.154328932550726
21
45.961940777125605
31
0
0
LINE
5
309
100
AcDbEntity
8
0
100
AcDbLine
10
55.154328932550726
20
53.033008588991081
30
0
11
51.618795026617981
21
49.497474683058343
31
0
0
LINE
5
310
100
AcDbEntity
8
0
100
AcDbLine
10
58.689862838483499
20
49.497474683058343
30
0
11
55.154328932550726
21
53.033008588991081
31
0
0
LINE
5
311
100
AcDbEntity
8
0
100
AcDbLine
10
55.154328932550726
20
45.961940777125605
30
0
11
58.689862838483499
21
49.497474683058343
31
0
0
LINE
5
312
100
AcDbEntity
8
0
100
AcDbLine
10
60.811183182043109
20
49.497474683058343
30
0
11
64.346717087975847
21
45.961940777125605
31
0
0
LINE
5
313
100
AcDbEntity
8
0
100
AcDbLine
10
64.346717087975847
20
53.033008588991081
30
0
11
60.811183182043109
21
49.497474683058343
31
0
0
LINE
5
314
100
AcDbEntity
8
0
100
AcDbLine
10
67.882250993908627
20
49.497474683058343
30
0
11
64.346717087975847
21
53.033008588991081
31
0
0
LINE
5
315
100
AcDbEntity
8
0
100
AcDbLine
10
64.346717087975847
20
45.961940777125605
30
0
11
67.882250993908627
21
49.497474683058343
31
0
0
LINE
5
316
100
AcDbEntity
8
0
100
AcDbLine
10
70.00357133746823
20
49.497474683058343
30
0
11
73.539105243400968
21
45.961940777125605
31
0
0
LINE
5
317
100
AcDbEntity
8
0
100
AcDbLine
10
73.539105243400968
20
53.033008588991081
30
0
11
70.00357133746823
21
49.497474683058343
31
0
0
LINE
5
318
100
AcDbEntity
8
0
100
AcDbLine
10
77.074639149333734
20
49.497474683058343
30
0
11
73.539105243400968
21
53.033008588991081
31
0
0
LINE
5
319
100
AcDbEntity
8
0
100
AcDbLine
10
73.539105243400968
20
45.961940777125605
30
0
11
77.074639149333734
21
49.497474683058343
31
0
0
LINE
5
320
100
AcDbEntity
8
0
100
AcDbLine
10
-3.53553390593274
20
58.689862838483464
30
0
11
0
21
55.154328932550726
31
0
0
LINE
5
321
100
AcDbEntity
8
0
100
AcDbLine
10
5.7289486788648212e-16
20
62.225396744416201
30
0
11
-3.53553390593274
21
58.689862838483464
31
0
0
LINE
5
322
100
AcDbEntity
8
0
100
AcDbLine
10
3.5355339059327724
20
58.689862838483464
30
0
11
5.7289486788648212e-16
21
62.225396744416201
31
0
0
LINE
5
323
100
AcDbEntity
8
0
100
AcDbLine
10
0
20
55.154328932550726
30
0
11
3.5355339059327724
21
58.689862838483464
31
0
0
LINE
5
324
100
AcDbEntity
8
0
100
AcDbLine
10
5.6568542494923797
20
58.689862838483464
30
0
11
9.192388155425121
21
55.154328932550726
31
0
0
LINE
5
325
100
AcDbEntity
8
0
100
AcDbLine
10
9.192388155425121
20
62.225396744416201
30
0
11
5.6568542494923797
21
58.689862838483464
31
0
0
LINE
5
326
100
AcDbEntity
8
0
100
AcDbLine
10
12.727922061357893
20
58.689862838483464
30
0
11
9.192388155425121
21
62.225396744416201
31
0
0
LINE
5
327
100
AcDbEntity
8
0
100
AcDbLine
10
9.192388155425121
20
55.154328932550726
30
0
11
12.727922061357893
21
58.689862838483464
31
0
0
LINE
5
328
100
AcDbEntity
8
0
100
AcDbLine
10
14.849242404917502
20
58.689862838483464
30
0
11
18.384776310850242
21
55.154328932550726
31
0
0
LINE
5
329
100
AcDbEntity
8
0
100
AcDbLine
10
18.384776310850242
20
62.225396744416201
30
0
11
14.849242404917502
21
58.689862838483464
31
0
0
LINE
5
330
100
AcDbEntity
8
0
100
AcDbLine
10
21.920310216783015
20
58.689862838483464
30
0
11
18.384776310850242
21
62.225396744416201
31
0
0
LINE
5
331
100
AcDbEntity
8
0
100
AcDbLine
10
18.384776310850242
20
55.154328932550726
30
0
11
21.920310216783015
21
58.689862838483464
31
0
0
LINE
5
332
100
AcDbEntity
8
0
100
AcDbLine
10
24.041630560342622
20
58.689862838483464
30
0
11
27.577164466275363
21
55.154328932550726
31
0
0
LINE
5
333
100
AcDbEntity
8
0
100
AcDbLine
10
27.577164466275363
20
62.225396744416201
30
0
11
24.041630560342622
21
58.689862838483464
31
0
0
LINE
5
334
100
AcDbEntity
8
0
100
AcDbLine
10
31.112698372208133
20
58.689862838483464
30
0
11
27.577164466275363
21
62.225396744416201
31
0
0
LINE
5
335
100
AcDbEntity
8
0
100
AcDbLine
10
27.577164466275363
20
55.154328932550726
30
0
11
31.112698372208133
21
58.689862838483464
31
0
0
LINE
5
336
100
AcDbEntity
8
0
100
AcDbLine
10
33.234018715767746
20
58.689862838483464
30
0
11
36.769552621700484
21
55.154328932550726
31
0
0
LINE
5
337
100
AcDbEntity
8
0
100
AcDbLine
10
36.769552621700484
20
62.225396744416201
30
0
11
33.234018715767746
21
58.689862838483464
31
0
0
LINE
5
338
100
AcDbEntity
8
0
100
AcDbLine
10
40.30508652763325
20
58.689862838483464
30
0
11
36.769552621700484
21
62.225396744416201
31
0
0
LINE
5
339
100
AcDbEntity
8
0
100
AcDbLine
10
36.769552621700484
20
55.154328932550726
30
0
11
40.30508652763325
21
58.689862838483464
31
0
0
LINE
5
340
100
AcDbEntity
8
0
100
AcDbLine
10
42.426406871192867
20
58.689862838483464
30
0
11
45.961940777125605
21
55.154328932550726
31
0
0
LINE
5
341
100
AcDbEntity
8
0
100
AcDbLine
10
45.961940777125605
20
62.225396744416201
30
0
11
42.426406871192867
21
58.689862838483464
31
0
0
LINE
5
342
100
AcDbEntity
8
0
100
AcDbLine
10
49.497474683058378
20
58.689862838483464
30
0
11
45.961940777125605
21
62.225396744416201
31
0
0
LINE
5
343
100
AcDbEntity
8
0
100
AcDbLine
10
45.961940777125605
20
55.154328932550726
30
0
11
49.497474683058378
21
58.689862838483464
31
0
0
LINE
5
344
100
AcDbEntity
8
0
100
AcDbLine
10
51.618795026617981
20
58.689862838483464
30
0
11
55.154328932550726
21
55.154328932550726
31
0
0
LINE
5
345
100
AcDbEntity
8
0
100
AcDbLine
10
55.154328932550726
20
62.225396744416201
30
0
11
51.618795026617981
21
58.689862838483464
31
0
0
LINE
5
346
100
AcDbEntity
8
0
100
AcDbLine
10
58.689862838483499
20
58.689862838483464
30
0
11
55.154328932550726
21
62.225396744416201
31
0
0
LINE
5
347
100
AcDbEntity
8
0
100
AcDbLine
10
55.154328932550726
20
55.154328932550726
30
0
11
58.689862838483499
21
58.689862838483464
31
0
0
LINE
5
348
100
AcDbEntity
8
0
100
AcDbLine
10
60.811183182043109
20
58.689862838483464
30
0
11
64.346717087975847
21
55.154328932550726
31
0
0
LINE
5
349
100
AcDbEntity
8
0
100
AcDbLine
10
64.346717087975847
20
62.225396744416201
30
0
11
60.811183182043109
21
58.689862838483464
31
0
0
LINE
5
350
100
AcDbEntity
8
0
100
AcDbLine
10
67.882250993908627
20
58.689862838483464
30
0
11
64.346717087975847
21
62.225396744416201
31
0
0
LINE
5
351
100
AcDbEntity
8
0
100
AcDbLine
10
64.346717087975847
20
55.154328932550726
30
0
11
67.882250993908627
21
58.689862838483464
31
0
0
LINE
5
352
100
AcDbEntity
8
0
100
AcDbLine
10
70.00357133746823
20
58.689862838483464
30
0
11
73.539105243400968
21
55.154328932550726
31
0
0
LINE
5
353
100
AcDbEntity
8
0
100
AcDbLine
10
73.539105243400968
20
62.225396744416201
30
0
11
70.00357133746823
21
58.689862838483464
31
0
0
LINE
5
354
100
AcDbEntity
8
0
100
AcDbLine
10
77.074639149333734
20
58.689862838483464
30
0
11
73.539105243400968
21
62.225396744416201
31
0
0
LINE
5
355
100
AcDbEntity
8
0
100
AcDbLine
10
73.539105243400968
20
55.154328932550726
30
0
11
77.074639149333734
21
58.689862838483464
31
0
0
LINE
5
356
100
AcDbEntity
8
0
100
AcDbLine
10
4.5961940777125596
20
4.5961940777125605
30
0
11
8.131727983645332
21
8.1317279836453
31
0
0
LINE
5
357
100
AcDbEntity
8
0
100
AcDbLine
10
8.131727983645332
20
8.1317279836453
30
0
11
4.5961940777125756
21
11.667261889578089
31
0
0
LINE
5
358
100
AcDbEntity
8
0
100
AcDbLine
10
4.5961940777125756
20
11.667261889578089
30
0
11
1.0606601717798048
21
8.131727983645284
31
0
0
LINE
5
359
100
AcDbEntity
8
0
100
AcDbLine
10
1.0606601717798048
20
8.131727983645284
30
0
11
4.5961940777125596
21
4.5961940777125605
31
0
0
LINE
5
360
100
AcDbEntity
8
0
100
AcDbLine
10
13.788582233137681
20
4.5961940777125605
30
0
11
17.324116139070455
21
8.1317279836453
31
0
0
LINE
5
361
100
AcDbEntity
8
0
100
AcDbLine
10
17.324116139070455
20
8.1317279836453
30
0
11
13.788582233137696
21
11.667261889578089
31
0
0
LINE
5
362
100
AcDbEntity
8
0
100
AcDbLine
10
13.788582233137696
20
11.667261889578089
30
0
11
10.253048327204926
21
8.131727983645284
31
0
0
LINE
5
363
100
AcDbEntity
8
0
100
AcDbLine
10
10.253048327204926
20
8.131727983645284
30
0
11
13.788582233137681
21
4.5961940777125605
31
0
0
LINE
5
364
100
AcDbEntity
8
0
100
AcDbLine
10
22.980970388562802
20
4.5961940777125605
30
0
11
26.516504294495572
21
8.1317279836453
31
0
0
LINE
5
365
100
AcDbEntity
8
0
100
AcDbLine
10
26.516504294495572
20
8.1317279836453
30
0
11
22.980970388562817
21
11.667261889578089
31
0
0
LINE
5
366
100
AcDbEntity
8
0
100
AcDbLine
10
22.980970388562817
20
11.667261889578089
30
0
11
19.445436482630043
21
8.131727983645284
31
0
0
LINE
5
367
100
AcDbEntity
8
0
100
AcDbLine
10
19.445436482630043
20
8.131727983645284
30
0
11
22.980970388562802
21
4.5961940777125605
31
0
0
LINE
5
368
100
AcDbEntity
8
0
100
AcDbLine
10
32.173358543987916
20
4.5961940777125605
30
0
11
35.708892449920697
21
8.1317279836453
31
0
0
LINE
5
369
100
AcDbEntity
8
0
100
AcDbLine
10
35.708892449920697
20
8.1317279836453
30
0
11
32.173358543987938
21
11.667261889578089
31
0
0
LINE
5
370
100
AcDbEntity
8
0
100
AcDbLine
10
32.173358543987938
20
11.667261889578089
30
0
11
28.637824638055168
21
8.131727983645284
31
0
0
LINE
5
371
100
AcDbEntity
8
0
100
AcDbLine
10
28.637824638055168
20
8.131727983645284
30
0
11
32.173358543987916
21
4.5961940777125605
31
0
0
LINE
5
372
100
AcDbEntity
8
0
100
AcDbLine
10
41.365746699413044
20
4.5961940777125605
30
0
11
44.901280605345811
21
8.1317279836453
31
0
0
LINE
5
373
100
AcDbEntity
8
0
100
AcDbLine
10
44.901280605345811
20
8.1317279836453
30
0
11
41.365746699413066
21
11.667261889578089
31
0
0
LINE
5
374
100
AcDbEntity
8
0
100
AcDbLine
10
41.365746699413066
20
11.667261889578089
30
0
11
37.830212793480285
21
8.131727983645284
31
0
0
LINE
5
375
100
AcDbEntity
8
0
100
AcDbLine
10
37.830212793480285
20
8.131727983645284
30
0
11
41.365746699413044
21
4.5961940777125605
31
0
0
LINE
5
376
100
AcDbEntity
8
0
100
AcDbLine
10
50.558134854838165
20
4.5961940777125605
30
0
11
54.093668760770932
21
8.1317279836453
31
0
0
LINE
5
377
100
AcDbEntity
8
0
100
AcDbLine
10
54.093668760770932
20
8.1317279836453
30
0
11
50.55813485483818
21
11.667261889578089
31
0
0
LINE
5
378
100
AcDbEntity
8
0
100
AcDbLine
10
50.55813485483818
20
11.667261889578089
30
0
11
47.022600948905406
21
8.131727983645284
31
0
0
LINE
5
379
100
AcDbEntity
8
0
100
AcDbLine
10
47.022600948905406
20
8.131727983645284
30
0
11
50.558134854838165
21
4.5961940777125605
31
0
0
LINE
5
380
100
AcDbEntity
8
0
100
AcDbLine
10
59.750523010263294
20
4.5961940777125605
30
0
11
63.28605691619606
21
8.1317279836453
31
0
0
LINE
5
381
100
AcDbEntity
8
0
100
AcDbLine
10
63.28605691619606
20
8.1317279836453
30
0
11
59.750523010263308
21
11.667261889578089
31
0
0
LINE
5
382
100
AcDbEntity
8
0
100
AcDbLine
10
59.750523010263308
20
11.667261889578089
30
0
11
56.214989104330535
21
8.131727983645284
31
0
0
LINE
5
383
100
AcDbEntity
8
0
100
AcDbLine
10
56.214989104330535
20
8.131727983645284
30
0
11
59.750523010263294
21
4.5961940777125605
31
0
0
LINE
5
384
100
AcDbEntity
8
0
100
AcDbLine
10
68.9429111656884
20
4.5961940777125605
30
0
11
72.478445071621167
21
8.1317279836453
31
0
0
LINE
5
385
100
AcDbEntity
8
0
100
AcDbLine
10
72.478445071621167
20
8.1317279836453
30
0
11
68.942911165688429
21
11.667261889578089
31
0
0
LINE
5
386
100
AcDbEntity
8
0
100
AcDbLine
10
68.942911165688429
20
11.667261889578089
30
0
11
65.407377259755648
21
8.131727983645284
31
0
0
LINE
5
387
100
AcDbEntity
8
0
100
AcDbLine
10
65.407377259755648
20
8.131727983645284
30
0
11
68.9429111656884
21
4.5961940777125605
31
0
0
LINE
5
388
100
AcDbEntity
8
0
100
AcDbLine
10
-4.5961940777125605
20
13.788582233137681
30
0
11
-1.0606601717797886
21
17.324116139070419
31
0
0
LINE
5
389
100
AcDbEntity
8
0
100
AcDbLine
10
-1.0606601717797886
20
17.324116139070419
30
0
11
-4.5961940777125445
21
20.859650045003207
31
0
0
LINE
5
390
100
AcDbEntity
8
0
100
AcDbLine
10
-4.5961940777125445
20
20.859650045003207
30
0
11
-8.131727983645316
21
17.324116139070405
31
0
0
LINE
5
391
100
AcDbEntity
8
0
100
AcDbLine
10
-8.131727983645316
20
17.324116139070405
30
0
11
-4.5961940777125605
21
13.788582233137681
31
0
0
LINE
5
392
100
AcDbEntity
8
0
100
AcDbLine
10
4.5961940777125596
20
13.788582233137681
30
0
11
8.131727983645332
21
17.324116139070419
31
0
0
LINE
5
393
100
AcDbEntity
8
0
100
AcDbLine
10
8.131727983645332
20
17.324116139070419
30
0
11
4.5961940777125756
21
20.859650045003207
31
0
0
LINE
5
394
100
AcDbEntity
8
0
100
AcDbLine
10
4.5961940777125756
20
20.859650045003207
30
0
11
1.0606601717798048
21
17.324116139070405
31
0
0
LINE
5
395
100
AcDbEntity
8
0
100
AcDbLine
10
1.0606601717798048
20
17.324116139070405
30
0
11
4.5961940777125596
21
13.788582233137681
31
0
0
LINE
5
396
100
AcDbEntity
8
0
100
AcDbLine
10
13.788582233137681
20
13.788582233137681
30
0
11
17.324116139070455
21
17.324116139070419
31
0
0
LINE
5
397
100
AcDbEntity
8
0
100
AcDbLine
10
17.324116139070455
20
17.324116139070419
30
0
11
13.788582233137696
21
20.859650045003207
31
0
0
LINE
5
398
100
AcDbEntity
8
0
100
AcDbLine
10
13.788582233137696
20
20.859650045003207
30
0
11
10.253048327204926
21
17.324116139070405
31
0
0
LINE
5
399
100
AcDbEntity
8
0
100
AcDbLine
10
10.253048327204926
20
17.324116139070405
30
0
11
13.788582233137681
21
13.788582233137681
31
0
0
LINE
5
400
100
AcDbEntity
8
0
100
AcDbLine
10
22.980970388562802
20
13.788582233137681
30
0
11
26.516504294495572
21
17.324116139070419
31
0
0
LINE
5
401
100
AcDbEntity
8
0
100
AcDbLine
10
26.516504294495572
20
17.324116139070419
30
0
11
22.980970388562817
21
20.859650045003207
31
0
0
LINE
5
402
100
AcDbEntity
8
0
100
AcDbLine
10
22.980970388562817
20
20.859650045003207
30
0
11
19.445436482630043
21
17.324116139070405
31
0
0
LINE
5
403
100
AcDbEntity
8
0
100
AcDbLine
10
19.445436482630043
20
17.324116139070405
30
0
11
22.980970388562802
21
13.788582233137681
31
0
0
LINE
5
404
100
AcDbEntity
8
0
100
AcDbLine
10
32.173358543987916
20
13.788582233137681
30
0
11
35.708892449920697
21
17.324116139070419
31
0
0
LINE
5
405
100
AcDbEntity
8
0
100
AcDbLine
10
35.708892449920697
20
17.324116139070419
30
0
11
32.173358543987938
21
20.859650045003207
31
0
0
LINE
5
406
100
AcDbEntity
8
0
100
AcDbLine
10
32.173358543987938
20
20.859650045003207
30
0
11
28.637824638055168
21
17.324116139070405
31
0
0
LINE
5
407
100
AcDbEntity
8
0
100
AcDbLine
10
28.637824638055168
20
17.324116139070405
30
0
11
32.173358543987916
21
13.788582233137681
31
0
0
LINE
5
408
100
AcDbEntity
8
0
100
AcDbLine
10
41.365746699413044
20
13.788582233137681
30
0
11
44.901280605345811
21
17.324116139070419
31
0
0
LINE
5
409
100
AcDbEntity
8
0
100
AcDbLine
10
44.901280605345811
20
17.324116139070419
30
0
11
41.365746699413066
21
20.859650045003207
31
0
0
LINE
5
410
100
AcDbEntity
8
0
100
AcDbLine
10
41.365746699413066
20
20.859650045003207
30
0
11
37.830212793480285
21
17.324116139070405
31
0
0
LINE
5
411
100
AcDbEntity
8
0
100
AcDbLine
10
37.830212793480285
20
17.324116139070405
30
0
11
41.365746699413044
21
13.788582233137681
31
0
0
LINE
5
412
100
AcDbEntity
8
0
100
AcDbLine
10
50.558134854838165
20
13.788582233137681
30
0
11
54.093668760770932
21
17.324116139070419
31
0
0
LINE
5
413
100
AcDbEntity
8
0
100
AcDbLine
10
54.093668760770932
20
17.324116139070419
30
0
11
50.55813485483818
21
20.859650045003207
31
0
0
LINE
5
414
100
AcDbEntity
8
0
100
AcDbLine
10
50.55813485483818
20
20.859650045003207
30
0
11
47.022600948905406
21
17.324116139070405
31
0
0
LINE
5
415
100
AcDbEntity
8
0
100
AcDbLine
10
47.022600948905406
20
17.324116139070405
30
0
11
50.558134854838165
21
13.788582233137681
31
0
0
LINE
5
416
100
AcDbEntity
8
0
100
AcDbLine
10
59.750523010263294
20
13.788582233137681
30
0
11
63.28605691619606
21
17.324116139070419
31
0
0
LINE
5
417
100
AcDbEntity
8
0
100
AcDbLine
10
63.28605691619606
20
17.324116139070419
30
0
11
59.750523010263308
21
20.859650045003207
31
0
0
LINE
5
418
100
AcDbEntity
8
0
100
AcDbLine
10
59.750523010263308
20
20.859650045003207
30
0
11
56.214989104330535
21
17.324116139070405
31
0
0
LINE
5
419
100
AcDbEntity
8
0
100
AcDbLine
10
56.214989104330535
20
17.324116139070405
30
0
11
59.750523010263294
21
13.788582233137681
31
0
0
LINE
5
420
100
AcDbEntity
8
0
100
AcDbLine
10
68.9429111656884
20
13.788582233137681
30
0
11
72.478445071621167
21
17.324116139070419
31
0
0
LINE
5
421
100
AcDbEntity
8
0
100
AcDbLine
10
72.478445071621167
20
17.324116139070419
30
0
11
68.942911165688429
21
20.859650045003207
31
0
0
LINE
5
422
100
AcDbEntity
8
0
100
AcDbLine
10
68.942911165688429
20
20.859650045003207
30
0
11
65.407377259755648
21
17.324116139070405
31
0
0
LINE
5
423
100
AcDbEntity
8
0
100
AcDbLine
10
65.407377259755648
20
17.324116139070405
30
0
11
68.9429111656884
21
13.788582233137681
31
0
0
LINE
5
424
100
AcDbEntity
8
0
100
AcDbLine
10
-4.5961940777125605
20
22.980970388562802
30
0
11
-1.0606601717797886
21
26.51650429449554
31
0
0
LINE
5
425
100
AcDbEntity
8
0
100
AcDbLine
10
-1.0606601717797886
20
26.51650429449554
30
0
11
-4.5961940777125445
21
30.052038200428331
31
0
0
LINE
5
426
100
AcDbEntity
8
0
100
AcDbLine
10
-4.5961940777125445
20
30.052038200428331
30
0
11
-8.131727983645316
21
26.516504294495526
31
0
0
LINE
5
427
100
AcDbEntity
8
0
100
AcDbLine
10
-8.131727983645316
20
26.516504294495526
30
0
11
-4.5961940777125605
21
22.980970388562802
31
0
0
LINE
5
428
100
AcDbEntity
8
0
100
AcDbLine
10
4.5961940777125596
20
22.980970388562802
30
0
11
8.131727983645332
21
26.51650429449554
31
0
0
LINE
5
429
100
AcDbEntity
8
0
100
AcDbLine
10
8.131727983645332
20
26.51650429449554
30
0
11
4.5961940777125756
21
30.052038200428331
31
0
0
LINE
5
430
100
AcDbEntity
8
0
100
AcDbLine
10
4.5961940777125756
20
30.052038200428331
30
0
11
1.0606601717798048
21
26.516504294495526
31
0
0
LINE
5
431
100
AcDbEntity
8
0
100
AcDbLine
10
1.0606601717798048
20
26.516504294495526
30
0
11
4.5961940777125596
21
22.980970388562802
31
0
0
LINE
5
432
100
AcDbEntity
8
0
100
AcDbLine
10
13.788582233137681
20
22.980970388562802
30
0
11
17.324116139070455
21
26.51650429449554
31
0
0
LINE
5
433
100
AcDbEntity
8
0
100
AcDbLine
10
17.324116139070455
20
26.51650429449554
30
0
11
13.788582233137696
21
30.052038200428331
31
0
0
LINE
5
434
100
AcDbEntity
8
0
100
AcDbLine
10
13.788582233137696
20
30.052038200428331
30
0
11
10.253048327204926
21
26.516504294495526
31
0
0
LINE
5
435
100
AcDbEntity
8
0
100
AcDbLine
10
10.253048327204926
20
26.516504294495526
30
0
11
13.788582233137681
21
22.980970388562802
31
0
0
LINE
5
436
100
AcDbEntity
8
0
100
AcDbLine
10
22.980970388562802
20
22.980970388562802
30
0
11
26.516504294495572
21
26.51650429449554
31
0
0
LINE
5
437
100
AcDbEntity
8
0
100
AcDbLine
10
26.516504294495572
20
26.51650429449554
30
0
11
22.980970388562817
21
30.052038200428331
31
0
0
LINE
5
438
100
AcDbEntity
8
0
100
AcDbLine
10
22.980970388562817
20
30.052038200428331
30
0
11
19.445436482630043
21
26.516504294495526
31
0
0
LINE
5
439
100
AcDbEntity
8
0
100
AcDbLine
10
19.445436482630043
20
26.516504294495526
30
0
11
22.980970388562802
21
22.980970388562802
31
0
0
LINE
5
440
100
AcDbEntity
8
0
100
AcDbLine
10
32.173358543987916
20
22.980970388562802
30
0
11
35.708892449920697
21
26.51650429449554
31
0
0
LINE
5
441
100
AcDbEntity
8
0
100
AcDbLine
10
35.708892449920697
20
26.51650429449554
30
0
11
32.173358543987938
21
30.052038200428331
31
0
0
LINE
5
442
100
AcDbEntity
8
0
100
AcDbLine
10
32.173358543987938
20
30.052038200428331
30
0
11
28.637824638055168
21
26.516504294495526
31
0
0
LINE
5
443
100
AcDbEntity
8
0
100
AcDbLine
10
28.637824638055168
20
26.516504294495526
30
0
11
32.173358543987916
21
22.980970388562802
31
0
0
LINE
5
444
100
AcDbEntity
8
0
100
AcDbLine
10
41.365746699413044
20
22.980970388562802
30
0
11
44.901280605345811
21
26.51650429449554
31
0
0
LINE
5
445
100
AcDbEntity
8
0
100
AcDbLine
10
44.901280605345811
20
26.51650429449554
30
0
11
41.365746699413066
21
30.052038200428331
31
0
0
LINE
5
446
100
AcDbEntity
8
0
100
AcDbLine
10
41.365746699413066
20
30.052038200428331
30
0
11
37.830212793480285
21
26.516504294495526
31
0
0
LINE
5
447
100
AcDbEntity
8
0
100
AcDbLine
10
37.830212793480285
20
26.516504294495526
30
0
11
41.365746699413044
21
22.980970388562802
31
0
0
LINE
5
448
100
AcDbEntity
8
0
100
AcDbLine
10
50.558134854838165
20
22.980970388562802
30
0
11
54.093668760770932
21
26.51650429449554
31
0
0
LINE
5
449
100
AcDbEntity
8
0
100
AcDbLine
10
54.093668760770932
20
26.51650429449554
30
0
11
50.55813485483818
21
30.052038200428331
31
0
0
LINE
5
450
100
AcDbEntity
8
0
100
AcDbLine
10
50.55813485483818
20
30.052038200428331
30
0
11
47.022600948905406
21
26.516504294495526
31
0
0
LINE
5
451
100
AcDbEntity
8
0
100
AcDbLine
10
47.022600948905406
20
26.516504294495526
30
0
11
50.558134854838165
21
22.980970388562802
31
0
0
LINE
5
452
100
AcDbEntity
8
0
100
AcDbLine
10
59.750523010263294
20
22.980970388562802
30
0
11
63.28605691619606
21
26.51650429449554
31
0
0
LINE
5
453
100
AcDbEntity
8
0
100
AcDbLine
10
63.28605691619606
20
26.51650429449554
30
0
11
59.750523010263308
21
30.052038200428331
31
0
0
LINE
5
454
100
AcDbEntity
8
0
100
AcDbLine
10
59.750523010263308
20
30.052038200428331
30
0
11
56.214989104330535
21
26.516504294495526
31
0
0
LINE
5
455
100
AcDbEntity
8
0
100
AcDbLine
10
56.214989104330535
20
26.516504294495526
30
0
11
59.750523010263294
21
22.980970388562802
31
0
0
LINE
5
456
100
AcDbEntity
8
0
100
AcDbLine
10
68.9429111656884
20
22.980970388562802
30
0
11
72.478445071621167
21
26.51650429449554
31
0
0
LINE
5
457
100
AcDbEntity
8
0
100
AcDbLine
10
72.478445071621167
20
26.51650429449554
30
0
11
68.942911165688429
21
30.052038200428331
31
0
0
LINE
5
458
100
AcDbEntity
8
0
100
AcDbLine
10
68.942911165688429
20
30.052038200428331
30
0
11
65.407377259755648
21
26.516504294495526
31
0
0
LINE
5
459
100
AcDbEntity
8
0
100
AcDbLine
10
65.407377259755648
20
26.516504294495526
30
0
11
68.9429111656884
21
22.980970388562802
31
0
0
LINE
5
460
100
AcDbEntity
8
0
100
AcDbLine
10
-4.5961940777125605
20
32.173358543987916
30
0
11
-1.0606601717797886
21
35.708892449920661
31
0
0
LINE
5
461
100
AcDbEntity
8
0
100
AcDbLine
10
-1.0606601717797886
20
35.708892449920661
30
0
11
-4.5961940777125445
21
39.244426355853449
31
0
0
LINE
5
462
100
AcDbEntity
8
0
100
AcDbLine
10
-4.5961940777125445
20
39.244426355853449
30
0
11
-8.131727983645316
21
35.708892449920647
31
0
0
LINE
5
463
100
AcDbEntity
8
0
100
AcDbLine
10
-8.131727983645316
20
35.708892449920647
30
0
11
-4.5961940777125605
21
32.173358543987916
31
0
0
LINE
5
464
100
AcDbEntity
8
0
100
AcDbLine
10
4.5961940777125596
20
32.173358543987916
30
0
11
8.131727983645332
21
35.708892449920661
31
0
0
LINE
5
465
100
AcDbEntity
8
0
100
AcDbLine
10
8.131727983645332
20
35.708892449920661
30
0
11
4.5961940777125756
21
39.244426355853449
31
0
0
LINE
5
466
100
AcDbEntity
8
0
100
AcDbLine
10
4.5961940777125756
20
39.244426355853449
30
0
11
1.0606601717798048
21
35.708892449920647
31
0
0
LINE
5
467
100
AcDbEntity
8
0
100
AcDbLine
10
1.0606601717798048
20
35.708892449920647
30
0
11
4.5961940777125596
21
32.173358543987916
31
0
0
LINE
5
468
100
AcDbEntity
8
0
100
AcDbLine
10
13.788582233137681
20
32.173358543987916
30
0
11
17.324116139070455
21
35.708892449920661
31
0
0
LINE
5
469
100
AcDbEntity
8
0
100
AcDbLine
10
17.324116139070455
20
35.708892449920661
30
0
11
13.788582233137696
21
39.244426355853449
31
0
0
LINE
5
470
100
AcDbEntity
8
0
100
AcDbLine
10
13.788582233137696
20
39.244426355853449
30
0
11
10.253048327204926
21
35.708892449920647
31
0
0
LINE
5
471
100
AcDbEntity
8
0
100
AcDbLine
10
10.253048327204926
20
35.708892449920647
30
0
11
13.788582233137681
21
32.173358543987916
31
0
0
LINE
5
472
100
AcDbEntity
8
0
100
AcDbLine
10
22.980970388562802
20
32.173358543987916
30
0
11
26.516504294495572
21
35.708892449920661
31
0
0
LINE
5
473
100
AcDbEntity
8
0
100
AcDbLine
10
26.516504294495572
20
35.708892449920661
30
0
11
22.980970388562817
21
39.244426355853449
31
0
0
LINE
5
474
100
AcDbEntity
8
0
100
AcDbLine
10
22.980970388562817
20
39.244426355853449
30
0
11
19.445436482630043
21
35.708892449920647
31
0
0
LINE
5
475
100
AcDbEntity
8
0
100
AcDbLine
10
19.445436482630043
20
35.708892449920647
30
0
11
22.980970388562802
21
32.173358543987916
31
0
0
LINE
5
476
100
AcDbEntity
8
0
100
AcDbLine
10
32.173358543987916
20
32.173358543987916
30
0
11
35.708892449920697
21
35.708892449920661
31
0
0
LINE
5
477
100
AcDbEntity
8
0
100
AcDbLine
10
35.708892449920697
20
35.708892449920661
30
0
11
32.173358543987938
21
39.244426355853449
31
0
0
LINE
5
478
100
AcDbEntity
8
0
100
AcDbLine
10
32.173358543987938
20
39.244426355853449
30
0
11
28.637824638055168
21
35.708892449920647
31
0
0
LINE
5
479
100
AcDbEntity
8
0
100
AcDbLine
10
28.637824638055168
20
35.708892449920647
30
0
11
32.173358543987916
21
32.173358543987916
31
0
0
LINE
5
480
100
AcDbEntity
8
0
100
AcDbLine
10
41.365746699413044
20
32.173358543987916
30
0
11
44.901280605345811
21
35.708892449920661
31
0
0
LINE
5
481
100
AcDbEntity
8
0
100
AcDbLine
10
44.901280605345811
20
35.708892449920661
30
0
11
41.365746699413066
21
39.244426355853449
31
0
0
LINE
5
482
100
AcDbEntity
8
0
100
AcDbLine
10
41.365746699413066
20
39.244426355853449
30
0
11
37.830212793480285
21
35.708892449920647
31
0
0
LINE
5
483
100
AcDbEntity
8
0
100
AcDbLine
10
37.830212793480285
20
35.708892449920647
30
0
11
41.365746699413044
21
32.173358543987916
31
0
0
LINE
5
484
100
AcDbEntity
8
0
100
AcDbLine
10
50.558134854838165
20
32.173358543987916
30
0
11
54.093668760770932
21
35.708892449920661
31
0
0
LINE
5
485
100
AcDbEntity
8
0
100
AcDbLine
10
54.093668760770932
20
35.708892449920661
30
0
11
50.55813485483818
21
39.244426355853449
31
0
0
LINE
5
486
100
AcDbEntity
8
0
100
AcDbLine
10
50.55813485483818
20
39.244426355853449
30
0
11
47.022600948905406
21
35.708892449920647
31
0
0
LINE
5
487
100
AcDbEntity
8
0
100
AcDbLine
10
47.022600948905406
20
35.708892449920647
30
0
11
50.558134854838165
21
32.173358543987916
31
0
0
LINE
5
488
100
AcDbEntity
8
0
100
AcDbLine
10
59.750523010263294
20
32.173358543987916
30
0
11
63.28605691619606
21
35.708892449920661
31
0
0
LINE
5
489
100
AcDbEntity
8
0
100
AcDbLine
10
63.28605691619606
20
35.708892449920661
30
0
11
59.750523010263308
21
39.244426355853449
31
0
0
LINE
5
490
100
AcDbEntity
8
0
100
AcDbLine
10
59.750523010263308
20
39.244426355853449
30
0
11
56.214989104330535
21
35.708892449920647
31
0
0
LINE
5
491
100
AcDbEntity
8
0
100
AcDbLine
10
56.214989104330535
20
35.708892449920647
30
0
11
59.750523010263294
21
32.173358543987916
31
0
0
LINE
5
492
100
AcDbEntity
8
0
100
AcDbLine
10
68.9429111656884
20
32.173358543987916
30
0
11
72.478445071621167
21
35.708892449920661
31
0
0
LINE
5
493
100
AcDbEntity
8
0
100
AcDbLine
10
72.478445071621167
20
35.708892449920661
30
0
11
68.942911165688429
21
39.244426355853449
31
0
0
LINE
5
494
100
AcDbEntity
8
0
100
AcDbLine
10
68.942911165688429
20
39.244426355853449
30
0
11
65.407377259755648
21
35.708892449920647
31
0
0
LINE
5
495
100
AcDbEntity
8
0
100
AcDbLine
10
65.407377259755648
20
35.708892449920647
30
0
11
68.9429111656884
21
32.173358543987916
31
0
0
LINE
5
496
100
AcDbEntity
8
0
100
AcDbLine
10
-4.5961940777125605
20
41.365746699413044
30
0
11
-1.0606601717797886
21
44.901280605345789
31
0
0
LINE
5
497
100
AcDbEntity
8
0
100
AcDbLine
10
-1.0606601717797886
20
44.901280605345789
30
0
11
-4.5961940777125445
21
48.43681451127857
31
0
0
LINE
5
498
100
AcDbEntity
8
0
100
AcDbLine
10
-4.5961940777125445
20
48.43681451127857
30
0
11
-8.131727983645316
21
44.901280605345768
31
0
0
LINE
5
499
100
AcDbEntity
8
0
100
AcDbLine
10
-8.131727983645316
20
44.901280605345768
30
0
11
-4.5961940777125605
21
41.365746699413044
31
0
0
LINE
5
500
100
AcDbEntity
8
0
100
AcDbLine
10
4.5961940777125596
20
41.365746699413044
30
0
11
8.131727983645332
21
44.901280605345789
31
0
0
LINE
5
501
100
AcDbEntity
8
0
100
AcDbLine
10
8.131727983645332
20
44.901280605345789
30
0
11
4.5961940777125756
21
48.43681451127857
31
0
0
LINE
5
502
100
AcDbEntity
8
0
100
AcDbLine
10
4.5961940777125756
20
48.43681451127857
30
0
11
1.0606601717798048
21
44.901280605345768
31
0
0
LINE
5
503
100
AcDbEntity
8
0
100
AcDbLine
10
1.0606601717798048
20
44.901280605345768
30
0
11
4.5961940777125596
21
41.365746699413044
31
0
0
LINE
5
504
100
AcDbEntity
8
0
100
AcDbLine
10
13.788582233137681
20
41.365746699413044
30
0
11
17.324116139070455
21
44.901280605345789
31
0
0
LINE
5
505
100
AcDbEntity
8
0
100
AcDbLine
10
17.324116139070455
20
44.901280605345789
30
0
11
13.788582233137696
21
48.43681451127857
31
0
0
LINE
5
506
100
AcDbEntity
8
0
100
AcDbLine
10
13.788582233137696
20
48.43681451127857
30
0
11
10.253048327204926
21
44.901280605345768
31
0
0
LINE
5
507
100
AcDbEntity
8
0
100
AcDbLine
10
10.253048327204926
20
44.901280605345768
30
0
11
13.788582233137681
21
41.365746699413044
31
0
0
LINE
5
508
100
AcDbEntity
8
0
100
AcDbLine
10
22.980970388562802
20
41.365746699413044
30
0
11
26.516504294495572
21
44.901280605345789
31
0
0
LINE
5
509
100
AcDbEntity
8
0
100
AcDbLine
10
26.516504294495572
20
44.901280605345789
30
0
11
22.980970388562817
21
48.43681451127857
31
0
0
LINE
5
510
100
AcDbEntity
8
0
100
AcDbLine
10
22.980970388562817
20
48.43681451127857
30
0
11
19.445436482630043
21
44.901280605345768
31
0
0
LINE
5
511
100
AcDbEntity
8
0
100
AcDbLine
10
19.445436482630043
20
44.901280605345768
30
0
11
22.980970388562802
21
41.365746699413044
31
0
0
LINE
5
512
100
AcDbEntity
8
0
100
AcDbLine
10
32.173358543987916
20
41.365746699413044
30
0
11
35.708892449920697
21
44.901280605345789
31
0
0
LINE
5
513
100
AcDbEntity
8
0
100
AcDbLine
10
35.708892449920697
20
44.901280605345789
30
0
11
32.173358543987938
21
48.43681451127857
31
0
0
LINE
5
514
100
AcDbEntity
8
0
100
AcDbLine
10
32.173358543987938
20
48.43681451127857
30
0
11
28.637824638055168
21
44.901280605345768
31
0
0
LINE
5
515
100
AcDbEntity
8
0
100
AcDbLine
10
28.637824638055168
20
44.901280605345768
30
0
11
32.173358543987916
21
41.365746699413044
31
0
0
LINE
5
516
100
AcDbEntity
8
0
100
AcDbLine
10
41.365746699413044
20
41.365746699413044
30
0
11
44.901280605345811
21
44.901280605345789
31
0
0
LINE
5
517
100
AcDbEntity
8
0
100
AcDbLine
10
44.901280605345811
20
44.901280605345789
30
0
11
41.365746699413066
21
48.43681451127857
31
0
0
LINE
5
518
100
AcDbEntity
8
0
100
AcDbLine
10
41.365746699413066
20
48.43681451127857
30
0
11
37.830212793480285
21
44.901280605345768
31
0
0
LINE
5
519
100
AcDbEntity
8
0
100
AcDbLine
10
37.830212793480285
20
44.901280605345768
30
0
11
41.365746699413044
21
41.365746699413044
31
0
0
LINE
5
520
100
AcDbEntity
8
0
100
AcDbLine
10
50.558134854838165
20
41.365746699413044
30
0
11
54.093668760770932
21
44.901280605345789
31
0
0
LINE
5
521
100
AcDbEntity
8
0
100
AcDbLine
10
54.093668760770932
20
44.901280605345789
30
0
11
50.55813485483818
21
48.43681451127857
31
0
0
LINE
5
522
100
AcDbEntity
8
0
100
AcDbLine
10
50.55813485483818
20
48.43681451127857
30
0
11
47.022600948905406
21
44.901280605345768
31
0
0
LINE
5
523
100
AcDbEntity
8
0
100
AcDbLine
10
47.022600948905406
20
44.901280605345768
30
0
11
50.558134854838165
21
41.365746699413044
31
0
0
LINE
5
524
100
AcDbEntity
8
0
100
AcDbLine
10
59.750523010263294
20
41.365746699413044
30
0
11
63.28605691619606
21
44.901280605345789
31
0
0
LINE
5
525
100
AcDbEntity
8
0
100
AcDbLine
10
63.28605691619606
20
44.901280605345789
30
0
11
59.750523010263308
21
48.43681451127857
31
0
0
LINE
5
526
100
AcDbEntity
8
0
100
AcDbLine
10
59.750523010263308
20
48.43681451127857
30
0
11
56.214989104330535
21
44.901280605345768
31
0
0
LINE
5
527
100
AcDbEntity
8
0
100
AcDbLine
10
56.214989104330535
20
44.901280605345768
30
0
11
59.750523010263294
21
41.365746699413044
31
0
0
LINE
5
528
100
AcDbEntity
8
0
100
AcDbLine
10
68.9429111656884
20
41.365746699413044
30
0
11
72.478445071621167
21
44.901280605345789
31
0
0
LINE
5
529
100
AcDbEntity
8
0
100
AcDbLine
10
72.478445071621167
20
44.901280605345789
30
0
11
68.942911165688429
21
48.43681451127857
31
0
0
LINE
5
530
100
AcDbEntity
8
0
100
AcDbLine
10
68.942911165688429
20
48.43681451127857
30
0
11
65.407377259755648
21
44.901280605345768
31
0
0
LINE
5
531
100
AcDbEntity
8
0
100
AcDbLine
10
65.407377259755648
20
44.901280605345768
30
0
11
68.9429111656884
21
41.365746699413044
31
0
0
LINE
5
532
100
AcDbEntity
8
0
100
AcDbLine
10
-4.5961940777125605
20
50.558134854838165
30
0
11
-1.0606601717797886
21
54.093668760770903
31
0
0
LINE
5
533
100
AcDbEntity
8
0
100
AcDbLine
10
-1.0606601717797886
20
54.093668760770903
30
0
11
-4.5961940777125445
21
57.629202666703698
31
0
0
LINE
5
534
100
AcDbEntity
8
0
100
AcDbLine
10
-4.5961940777125445
20
57.629202666703698
30
0
11
-8.131727983645316
21
54.093668760770882
31
0
0
LINE
5
535
100
AcDbEntity
8
0
100
AcDbLine
10
-8.131727983645316
20
54.093668760770882
30
0
11
-4.5961940777125605
21
50.558134854838165
31
0
0
LINE
5
536
100
AcDbEntity
8
0
100
AcDbLine
10
4.5961940777125596
20
50.558134854838165
30
0
11
8.131727983645332
21
54.093668760770903
31
0
0
LINE
5
537
100
AcDbEntity
8
0
100
AcDbLine
10
8.131727983645332
20
54.093668760770903
30
0
11
4.5961940777125756
21
57.629202666703698
31
0
0
LINE
5
538
100
AcDbEntity
8
0
100
AcDbLine
10
4.5961940777125756
20
57.629202666703698
30
0
11
1.0606601717798048
21
54.093668760770882
31
0
0
LINE
5
539
100
AcDbEntity
8
0
100
AcDbLine
10
1.0606601717798048
20
54.093668760770882
30
0
11
4.5961940777125596
21
50.558134854838165
31
0
0
LINE
5
540
100
AcDbEntity
8
0
100
AcDbLine
10
13.788582233137681
20
50.558134854838165
30
0
11
17.324116139070455
21
54.093668760770903
31
0
0
LINE
5
541
100
AcDbEntity
8
0
100
AcDbLine
10
17.324116139070455
20
54.093668760770903
30
0
11
13.788582233137696
21
57.629202666703698
31
0
0
LINE
5
542
100
AcDbEntity
8
0
100
AcDbLine
10
13.788582233137696
20
57.629202666703698
30
0
11
10.253048327204926
21
54.093668760770882
31
0
0
LINE
5
543
100
AcDbEntity
8
0
100
AcDbLine
10
10.253048327204926
20
54.093668760770882
30
0
11
13.788582233137681
21
50.558134854838165
31
0
0
LINE
5
544
100
AcDbEntity
8
0
100
AcDbLine
10
22.980970388562802
20
50.558134854838165
30
0
11
26.516504294495572
21
54.093668760770903
31
0
0
LINE
5
545
100
AcDbEntity
8
0
100
AcDbLine
10
26.516504294495572
20
54.093668760770903
30
0
11
22.980970388562817
21
57.629202666703698
31
0
0
LINE
5
546
100
AcDbEntity
8
0
100
AcDbLine
10
22.980970388562817
20
57.629202666703698
30
0
11
19.445436482630043
21
54.093668760770882
31
0
0
LINE
5
547
100
AcDbEntity
8
0
100
AcDbLine
10
19.445436482630043
20
54.093668760770882
30
0
11
22.980970388562802
21
50.558134854838165
31
0
0
LINE
5
548
100
AcDbEntity
8
0
100
AcDbLine
10
32.173358543987916
20
50.558134854838165
30
0
11
35.708892449920697
21
54.093668760770903
31
0
0
LINE
5
549
100
AcDbEntity
8
0
100
AcDbLine
10
35.708892449920697
20
54.093668760770903
30
0
11
32.173358543987938
21
57.629202666703698
31
0
0
LINE
5
550
100
AcDbEntity
8
0
100
AcDbLine
10
32.173358543987938
20
57.629202666703698
30
0
11
28.637824638055168
21
54.093668760770882
31
0
0
LINE
5
551
100
AcDbEntity
8
0
100
AcDbLine
10
28.637824638055168
20
54.093668760770882
30
0
11
32.173358543987916
21
50.558134854838165
31
0
0
LINE
5
552
100
AcDbEntity
8
0
100
AcDbLine
10
41.365746699413044
20
50.558134854838165
30
0
11
44.901280605345811
21
54.093668760770903
31
0
0
LINE
5
553
100
AcDbEntity
8
0
100
AcDbLine
10
44.901280605345811
20
54.093668760770903
30
0
11
41.365746699413066
21
57.629202666703698
31
0
0
LINE
5
554
100
AcDbEntity
8
0
100
AcDbLine
10
41.365746699413066
20
57.629202666703698
30
0
11
37.830212793480285
21
54.093668760770882
31
0
0
LINE
5
555
100
AcDbEntity
8
0
100
AcDbLine
10
37.830212793480285
20
54.093668760770882
30
0
11
41.365746699413044
21
50.558134854838165
31
0
0
LINE
5
556
100
AcDbEntity
8
0
100
AcDbLine
10
50.558134854838165
20
50.558134854838165
30
0
11
54.093668760770932
21
54.093668760770903
31
0
0
LINE
5
557
100
AcDbEntity
8
0
100
AcDbLine
10
54.093668760770932
20
54.093668760770903
30
0
11
50.55813485483818
21
57.629202666703698
31
0
0
LINE
5
558
100
AcDbEntity
8
0
100
AcDbLine
10
50.55813485483818
20
57.629202666703698
30
0
11
47.022600948905406
21
54.093668760770882
31
0
0
LINE
5
559
100
AcDbEntity
8
0
100
AcDbLine
10
47.022600948905406
20
54.093668760770882
30
0
11
50.558134854838165
21
50.558134854838165
31
0
0
LINE
5
560
100
AcDbEntity
8
0
100
AcDbLine
10
59.750523010263294
20
50.558134854838165
30
0
11
63.28605691619606
21
54.093668760770903
31
0
0
LINE
5
561
100
AcDbEntity
8
0
100
AcDbLine
10
63.28605691619606
20
54.093668760770903
30
0
11
59.750523010263308
21
57.629202666703698
31
0
0
LINE
5
562
100
AcDbEntity
8
0
100
AcDbLine
10
59.750523010263308
20
57.629202666703698
30
0
11
56.214989104330535
21
54.093668760770882
31
0
0
LINE
5
563
100
AcDbEntity
8
0
100
AcDbLine
10
56.214989104330535
20
54.093668760770882
30
0
11
59.750523010263294
21
50.558134854838165
31
0
0
LINE
5
564
100
AcDbEntity
8
0
100
AcDbLine
10
68.9429111656884
20
50.558134854838165
30
0
11
72.478445071621167
21
54.093668760770903
31
0
0
LINE
5
565
100
AcDbEntity
8
0
100
AcDbLine
10
72.478445071621167
20
54.093668760770903
30
0
11
68.942911165688429
21
57.629202666703698
31
0
0
LINE
5
566
100
AcDbEntity
8
0
100
AcDbLine
10
68.942911165688429
20
57.629202666703698
30
0
11
65.407377259755648
21
54.093668760770882
31
0
0
LINE
5
567
100
AcDbEntity
8
0
100
AcDbLine
10
65.407377259755648
20
54.093668760770882
30
0
11
68.9429111656884
21
50.558134854838165
31
0
0
LINE
5
568
100
AcDbEntity
8
0
100
AcDbLine
10
-4.5961940777125605
20
59.750523010263279
30
0
11
-1.0606601717797886
21
63.286056916196017
31
0
0
LINE
5
569
100
AcDbEntity
8
0
100
AcDbLine
10
-1.0606601717797886
20
63.286056916196017
30
0
11
-4.5961940777125445
21
66.821590822128812
31
0
0
LINE
5
570
100
AcDbEntity
8
0
100
AcDbLine
10
-4.5961940777125445
20
66.821590822128812
30
0
11
-8.131727983645316
21
63.286056916196003
31
0
0
LINE
5
571
100
AcDbEntity
8
0
100
AcDbLine
10
-8.131727983645316
20
63.286056916196003
30
0
11
-4.5961940777125605
21
59.750523010263279
31
0
0
LINE
5
572
100
AcDbEntity
8
0
100
AcDbLine
10
4.5961940777125596
20
59.750523010263279
30
0
11
8.131727983645332
21
63.286056916196017
31
0
0
LINE
5
573
100
AcDbEntity
8
0
100
AcDbLine
10
8.131727983645332
20
63.286056916196017
30
0
11
4.5961940777125756
21
66.821590822128812
31
0
0
LINE
5
574
100
AcDbEntity
8
0
100
AcDbLine
10
4.5961940777125756
20
66.821590822128812
30
0
11
1.0606601717798048
21
63.286056916196003
31
0
0
LINE
5
575
100
AcDbEntity
8
0
100
AcDbLine
10
1.0606601717798048
20
63.286056916196003
30
0
11
4.5961940777125596
21
59.750523010263279
31
0
0
LINE
5
576
100
AcDbEntity
8
0
100
AcDbLine
10
13.788582233137681
20
59.750523010263279
30
0
11
17.324116139070455
21
63.286056916196017
31
0
0
LINE
5
577
100
AcDbEntity
8
0
100
AcDbLine
10
17.324116139070455
20
63.286056916196017
30
0
11
13.788582233137696
21
66.821590822128812
31
0
0
LINE
5
578
100
AcDbEntity
8
0
100
AcDbLine
10
13.788582233137696
20
66.821590822128812
30
0
11
10.253048327204926
21
63.286056916196003
31
0
0
LINE
5
579
100
AcDbEntity
8
0
100
AcDbLine
10
10.253048327204926
20
63.286056916196003
30
0
11
13.788582233137681
21
59.750523010263279
31
0
0
LINE
5
580
100
AcDbEntity
8
0
100
AcDbLine
10
22.980970388562802
20
59.750523010263279
30
0
11
26.516504294495572
21
63.286056916196017
31
0
0
LINE
5
581
100
AcDbEntity
8
0
100
AcDbLine
10
26.516504294495572
20
63.286056916196017
30
0
11
22.980970388562817
21
66.821590822128812
31
0
0
LINE
5
582
100
AcDbEntity
8
0
100
AcDbLine
10
22.980970388562817
20
66.821590822128812
30
0
11
19.445436482630043
21
63.286056916196003
31
0
0
LINE
5
583
100
AcDbEntity
8
0
100
AcDbLine
10
19.445436482630043
20
63.286056916196003
30
0
11
22.980970388562802
21
59.750523010263279
31
0
0
LINE
5
584
100
AcDbEntity
8
0
100
AcDbLine
10
32.173358543987916
20
59.750523010263279
30
0
11
35.708892449920697
21
63.286056916196017
31
0
0
LINE
5
585
100
AcDbEntity
8
0
100
AcDbLine
10
35.708892449920697
20
63.286056916196017
30
0
11
32.173358543987938
21
66.821590822128812
31
0
0
LINE
5
586
100
AcDbEntity
8
0
100
AcDbLine
10
32.173358543987938
20
66.821590822128812
30
0
11
28.637824638055168
21
63.286056916196003
31
0
0
LINE
5
587
100
AcDbEntity
8
0
100
AcDbLine
10
28.637824638055168
20
63.286056916196003
30
0
11
32.173358543987916
21
59.750523010263279
31
0
0
LINE
5
588
100
AcDbEntity
8
0
100
AcDbLine
10
41.365746699413044
20
59.750523010263279
30
0
11
44.901280605345811
21
63.286056916196017
31
0
0
LINE
5
589
100
AcDbEntity
8
0
100
AcDbLine
10
44.901280605345811
20
63.286056916196017
30
0
11
41.365746699413066
21
66.821590822128812
31
0
0
LINE
5
590
100
AcDbEntity
8
0
100
AcDbLine
10
41.365746699413066
20
66.821590822128812
30
0
11
37.830212793480285
21
63.286056916196003
31
0
0
LINE
5
591
100
AcDbEntity
8
0
100
AcDbLine
10
37.830212793480285
20
63.286056916196003
30
0
11
41.365746699413044
21
59.750523010263279
31
0
0
LINE
5
592
100
AcDbEntity
8
0
100
AcDbLine
10
50.558134854838165
20
59.750523010263279
30
0
11
54.093668760770932
21
63.286056916196017
31
0
0
LINE
5
593
100
AcDbEntity
8
0
100
AcDbLine
10
54.093668760770932
20
63.286056916196017
30
0
11
50.55813485483818
21
66.821590822128812
31
0
0
LINE
5
594
100
AcDbEntity
8
0
100
AcDbLine
10
50.55813485483818
20
66.821590822128812
30
0
11
47.022600948905406
21
63.286056916196003
31
0
0
LINE
5
595
100
AcDbEntity
8
0
100
AcDbLine
10
47.022600948905406
20
63.286056916196003
30
0
11
50.558134854838165
21
59.750523010263279
31
0
0
LINE
5
596
100
AcDbEntity
8
0
100
AcDbLine
10
59.750523010263294
20
59.750523010263279
30
0
11
63.28605691619606
21
63.286056916196017
31
0
0
LINE
5
597
100
AcDbEntity
8
0
100
AcDbLine
10
63.28605691619606
20
63.286056916196017
30
0
11
59.750523010263308
21
66.821590822128812
31
0
0
LINE
5
598
100
AcDbEntity
8
0
100
AcDbLine
10
59.750523010263308
20
66.821590822128812
30
0
11
56.214989104330535
21
63.286056916196003
31
0
0
LINE
5
599
100
AcDbEntity
8
0
100
AcDbLine
10
56.214989104330535
20
63.286056916196003
30
0
11
59.750523010263294
21
59.750523010263279
31
0
0
LINE
5
600
100
AcDbEntity
8
0
100
AcDbLine
10
68.9429111656884
20
59.750523010263279
30
0
11
72.478445071621167
21
63.286056916196017
31
0
0
LINE
5
601
100
AcDbEntity
8
0
100
AcDbLine
10
72.478445071621167
20
63.286056916196017
30
0
11
68.942911165688429
21
66.821590822128812
31
0
0
LINE
5
602
100
AcDbEntity
8
0
100
AcDbLine
10
68.942911165688429
20
66.821590822128812
30
0
11
65.407377259755648
21
63.286056916196003
31
0
0
LINE
5
603
100
AcDbEntity
8
0
100
AcDbLine
10
65.407377259755648
20
63.286056916196003
30
0
11
68.9429111656884
21
59.750523010263279
31
0
0
ENDSEC
0
SECTION
2
OBJECTS
0
DICTIONARY
5
C
100
AcDbDictionary
3
ACAD_GROUP
350
D
3
ACAD_MLINESTYLE
350
17
0
DICTIONARY
5
D
100
AcDbDictionary
0
DICTIONARY
5
1A
330
C
100
AcDbDictionary
0
DICTIONARY
5
17
100
AcDbDictionary
0
ENDSEC
0
EOF
